<?xml version="1.0" encoding="UTF-8"?><svg xmlns="http://www.w3.org/2000/svg" xmlns:xlink="http://www.w3.org/1999/xlink" viewBox="0 0 48 48" version="1.1"><g id="surface1" fill="#3F51B5"><path d="M48 16v-2h-7.531l-.66 2z"/><path d="M33 31v-2h-6v2z"/><path d="M39.766 28l.746-2h-6l.754 2z"/><path d="M29 26h4v2h-4z"/><path d="M29 23h4v2h-4z"/><path d="M42 29v2h6v-2z"/><path d="M36.18 19l-.66-2H27v2z"/><path d="M37.172 22l-.66-2H29v2z"/><path d="M33.379 23l.754 2h6.75l.746-2z"/><path d="M42 23h4v2h-4z"/><path d="M27 32h6v2h-6z"/><path d="M35.191 16l-.66-2H27v2z"/><path d="M36.777 32l.754 2 .746-2z"/><path d="M42 32h6v2h-6z"/><path d="M39.48 17l-.66 2H48v-2z"/><path d="M39.395 29h-3.75l.753 2h2.25z"/><path d="M42 26h4v2h-4z"/><path d="M38.488 20l-.66 2H46v-2z"/><path d="M0 14h8v2H0z"/><path d="M0 17h8v2H0z"/><path d="M2 20h4v2H2z"/><path d="M2 23h4v2H2z"/><path d="M2 26h4v2H2z"/><path d="M0 29h8v2H0z"/><path d="M0 32h8v2H0z"/><path d="M10 17h8v2h-8z"/><path d="M24.977 16c-.915-1.207-2.348-2-3.977-2H10v2z"/><path d="M25.578 17h-9.133A4.882 4.882 0 0 0 16 19h10c0-.71-.152-1.387-.422-2z"/><path d="M23.977 23H12v2h11.973A4.95 4.95 0 0 0 21 24c1.117 0 2.14-.379 2.977-1z"/><path d="M17.023 32H10v2h11a4.975 4.975 0 0 0 3.977-2z"/><path d="M18 29h-8v2h15.578c.27-.613.422-1.29.422-2z"/><path d="M21 20v1c0 .918-1 1-1 1h4.98c.442-.586.77-1.258.918-2z"/><path d="M12 20h5v2h-5z"/><path d="M21 28h4.887a5.024 5.024 0 0 0-.91-2H20s1 .168 1 1v1z"/><path d="M12 26h5v2h-5z"/></g><metadata><rdf:RDF xmlns:rdf="http://www.w3.org/1999/02/22-rdf-syntax-ns#" xmlns:rdfs="http://www.w3.org/2000/01/rdf-schema#" xmlns:dc="http://purl.org/dc/elements/1.1/"><rdf:Description about="https://iconscout.com/legal#licenses" dc:title="ibm" dc:description="ibm" dc:publisher="Iconscout" dc:date="2017-12-15" dc:format="image/svg+xml" dc:language="en"><dc:creator><rdf:Bag><rdf:li>Icons8</rdf:li></rdf:Bag></dc:creator></rdf:Description></rdf:RDF></metadata></svg>