<svg width="64" height="64" viewBox="0 0 64 64" fill="none" xmlns="http://www.w3.org/2000/svg">
<path d="M37.8708 36.7996C37.5919 37.0574 37.3017 37.2941 37 37.5256L48.0076 47.684C48.2265 47.8863 48.5233 48 48.8329 48C49.1424 48 49.4393 47.8863 49.6582 47.684C49.877 47.4817 50 47.2073 50 46.9212C50 46.6351 49.877 46.3607 49.6582 46.1584L38.6506 36C38.4001 36.2736 38.1497 36.5471 37.8708 36.7996Z" fill="white" stroke="white" stroke-width="2" stroke-linecap="round" stroke-linejoin="round"/>
<path fill-rule="evenodd" clip-rule="evenodd" d="M7.85 24.7C7.85 15.3554 15.4253 7.78003 24.77 7.78003C34.1147 7.78003 41.69 15.3554 41.69 24.7C41.69 34.0447 34.1147 41.62 24.77 41.62C15.4253 41.62 7.85 34.0447 7.85 24.7ZM24.77 5.78003C14.3208 5.78003 5.85 14.2508 5.85 24.7C5.85 35.1493 14.3208 43.62 24.77 43.62C35.2192 43.62 43.69 35.1493 43.69 24.7C43.69 14.2508 35.2192 5.78003 24.77 5.78003Z" fill="#ACACAC"/>
<path d="M24.77 6.78003C14.8731 6.78003 6.85 14.8031 6.85 24.7H8.85C8.85 15.9077 15.9776 8.78003 24.77 8.78003V6.78003ZM42.69 24.7C42.69 14.8031 34.6669 6.78003 24.77 6.78003V8.78003C33.5624 8.78003 40.69 15.9077 40.69 24.7H42.69ZM24.77 42.62C34.6669 42.62 42.69 34.597 42.69 24.7H40.69C40.69 33.4924 33.5624 40.62 24.77 40.62V42.62ZM6.85 24.7C6.85 34.597 14.8731 42.62 24.77 42.62V40.62C15.9776 40.62 8.85 33.4924 8.85 24.7H6.85ZM6.85 24.7C6.85 14.8031 14.8731 6.78003 24.77 6.78003V4.78003C13.7685 4.78003 4.85 13.6985 4.85 24.7H6.85ZM24.77 42.62C14.8731 42.62 6.85 34.597 6.85 24.7H4.85C4.85 35.7015 13.7685 44.62 24.77 44.62V42.62ZM42.69 24.7C42.69 34.597 34.6669 42.62 24.77 42.62V44.62C35.7715 44.62 44.69 35.7015 44.69 24.7H42.69ZM24.77 6.78003C34.6669 6.78003 42.69 14.8031 42.69 24.7H44.69C44.69 13.6985 35.7715 4.78003 24.77 4.78003V6.78003Z" fill="white"/>
<path d="M14.69 16.4C17.3653 13.7302 20.9905 12.2308 24.77 12.2308C28.5495 12.2308 32.1747 13.7302 34.85 16.4" stroke="white" stroke-width="2" stroke-linecap="round" stroke-linejoin="round"/>
</svg>
