<svg width="40" height="29" viewBox="0 0 40 29" fill="none" xmlns="http://www.w3.org/2000/svg">
<g clip-path="url(#clip0)">
<path d="M16.5678 28.0585C8.94991 27.9175 6.3479 27.7922 4.74816 27.4624C3.72326 27.2749 2.77845 26.7834 2.03642 26.052C1.50355 25.5183 1.07984 24.7042 0.750926 23.5747C0.468834 22.6336 0.359101 21.8508 0.20254 19.9382C-0.0372374 15.6222 -0.0942199 12.0933 0.20254 8.15019C0.446831 5.97357 0.565592 3.38849 2.19213 1.88043C2.93406 1.18668 3.85857 0.719089 4.85705 0.532596C6.42435 0.23499 13.102 -0.000274658 20.0152 -0.000274658C26.9126 -0.000274658 33.6053 0.23499 35.174 0.532596C36.4014 0.756088 37.5081 1.41225 38.2931 2.38199C39.7774 4.71686 39.8034 7.61986 39.954 9.89098C40.0164 10.9731 40.0164 17.117 39.954 18.1991C39.7196 21.7882 39.5309 23.0579 38.998 24.3744C38.7719 25.0363 38.3963 25.6372 37.9004 26.1304C37.1368 26.8784 36.1634 27.3759 35.1099 27.5567C28.5175 28.0523 22.9196 28.1601 16.5664 28.0582L16.5678 28.0585ZM26.6619 13.6374C22.9947 11.6775 19.4824 9.85995 15.8927 7.97868V19.2341C19.6708 17.1805 23.6525 15.2989 26.6774 13.6219L26.6619 13.6374Z" fill="white"/>
</g>
<defs>
<clipPath id="clip0">
<rect width="40" height="28.0929" fill="white"/>
</clipPath>
</defs>
</svg>
